<?xml version="1.0" encoding="UTF-8"?>
<svg width="793.7" height="793.7" version="1.1" viewBox="0 0 210 210" xmlns="http://www.w3.org/2000/svg">
 <g transform="translate(0,-87)">
  <path transform="matrix(.26458 0 0 .26458 0 87)" d="m25 18.701v223.95l223.95-223.95h-223.95zm750 526.05l-223.95 223.95h223.95v-223.95z" fill="#9ca3ab" style="paint-order:fill markers stroke"/>
  <path d="m105.52 123.8c-0.39015-2e-3 -0.76985 8e-3 -1.1549 0.011-3.9544-8e-3 -7.6721 0.18686-10.191 0.66456-3.4422 0.6528-6.2358 1.3926-7.6488 1.9822-1.8075 0.56289-3.5464 1.1512-4.6025 1.5809l-3.2317 1.3158 0.03298 0.0964c-0.48027 0.22422-0.95754 0.45851-1.4332 0.69672 0.0025-0.011 0.1601-0.44762 0.159-0.44682-0.03704 0.0293-1.6937 0.99769-3.6824 2.1508-2.3503 1.3626-4.5889 2.8502-6.723 4.4397-0.17146 0.033-0.80388 0.54109-1.6188 1.2496-3.725 2.9488-7.0838 6.237-10.063 9.7957l-2.4347 2.4177 0.39004 0.14399c-0.42088 0.55472-0.83712 1.1131-1.2401 1.6794-0.0076 0.011-0.01463 0.022-0.02199 0.033-0.31911 0.44877-0.63707 0.89802-0.94472 1.3537-0.44316 0.64426-0.8787 1.3103-1.3007 1.9879-0.19637 0.31544-0.39106 0.65291-0.58689 0.9807l-2.3855 3.6332 0.34842 8e-3c-0.16083 0.30627-0.32533 0.61095-0.48089 0.92006-0.0872 0.17072-0.16926 0.31984-0.25756 0.49411-0.1656 0.32754-0.31874 0.66394-0.47899 0.99587-0.03704 0.0784-0.07476 0.15644-0.11175 0.23484-1.0171 2.1322-1.9124 4.3485-2.696 6.6208-0.42784 0.79967-0.8595 2.457-1.5808 5.2822-0.02562 0.10258-0.04431 0.20589-0.07002 0.30847-0.04837 0.19381-0.1088 0.38298-0.15533 0.57744-0.11871 0.49482-0.22349 0.9936-0.3312 1.4919-0.01835 0.0846-0.03298 0.17073-0.05091 0.25572-0.02562 0.12383-0.05937 0.2473-0.08536 0.37106l-0.13629-0.33706-0.69104 4.949c-0.27002 1.9324-0.4355 3.8861-0.532 5.8483-1.1e-4 3e-3 1.44e-4 3e-3 0 8e-3 -1.86e-4 3e-3 1.77e-4 8e-3 0 0.011-0.0076 0.14251-0.02199 0.28357-0.02934 0.42598-0.0034 0.0879-0.0076 0.17549-0.01099 0.26305-0.01835 0.43693-0.02199 0.87455-0.03298 1.312-8.46e-4 0.0663-0.0034 0.13263-0.0076 0.19893-8.46e-4 0.0619-0.0025 0.12384-0.0034 0.18539-0.0017 0.11358-0.0076 0.22715-0.0076 0.34073-8.46e-4 0.0688-8.46e-4 0.13738-0.0017 0.20625-8.46e-4 0.0927-0.0025 0.18539-0.0034 0.27845-4.4e-4 0.11614 0.0017 0.23227 0.0017 0.34842-1.86e-4 0.11614-0.0017 0.23227-0.0017 0.34842 6.93e-4 0.0927 0.0025 0.18574 0.0034 0.27843 7.35e-4 0.0688 8.45e-4 0.13739 0.0017 0.20626 8.46e-4 0.11358 0.0076 0.22716 0.0076 0.34073 8.46e-4 0.0619 0.0017 0.12384 0.0034 0.18539 8.45e-4 0.0663 0.0034 0.13262 0.0076 0.19893 0.0076 0.43744 0.01463 0.87515 0.03298 1.312 0.0034 0.0876 0.0076 0.17513 0.01099 0.26305 0.0076 0.14253 0.02199 0.28358 0.02934 0.42605 1.77e-4 3e-3 -1.52e-4 8e-3 0 0.011 1.44e-4 3e-3 -1.1e-4 3e-3 0 8e-3 0.09635 1.9622 0.26195 3.9159 0.532 5.8483l0.69104 4.949 0.13629-0.33705c0.02562 0.12384 0.05861 0.2473 0.08536 0.37109 0.01835 0.085 0.03298 0.17074 0.05091 0.25573 0.10771 0.4983 0.21249 0.99715 0.3312 1.4919 0.04693 0.19564 0.10661 0.3863 0.15533 0.58124 0.02562 0.10149 0.04398 0.20334 0.07002 0.30482 0.72134 2.8252 1.153 4.4825 1.5808 5.2822 0.7837 2.2724 1.6789 4.4885 2.696 6.6208 0.03662 0.0784 0.07476 0.15644 0.11175 0.23484 0.1601 0.33193 0.31325 0.66818 0.47899 0.9959 0.08793 0.17439 0.17036 0.3235 0.25756 0.49413 0.15534 0.30921 0.32021 0.61369 0.48089 0.92009l-0.34842 8e-3 2.3855 3.6332c0.19565 0.3279 0.39052 0.66532 0.58689 0.98073 0.42198 0.67763 0.85752 1.3437 1.3007 1.9879 0.30776 0.45572 0.62576 0.90489 0.94472 1.3537 0.0076 0.011 0.01463 0.022 0.02199 0.033 0.403 0.56625 0.81924 1.1246 1.2401 1.6794l-0.39 0.14399 2.4347 2.4177c2.9788 3.5586 6.3377 6.8469 10.063 9.7957 0.81488 0.70841 1.4474 1.2178 1.6187 1.2496 2.1341 1.5896 4.3727 3.0771 6.723 4.4397 1.9887 1.1531 3.6452 2.1211 3.6824 2.1508 8.46e-4 8e-4 -0.15424-0.43668-0.15718-0.44679 0.47518 0.23813 0.95135 0.47287 1.4313 0.69672l-0.03298 0.0971 3.2318 1.3158c1.0561 0.42968 2.7951 1.018 4.6025 1.5808 1.413 0.58978 4.2064 1.3296 7.6487 1.9824 2.5193 0.47771 6.237 0.67196 10.191 0.66448 0.38491 0 0.76472 0.0146 1.1549 0.011 0.10258 0 0.21139-0.011 0.31434-0.011s0.21177 0.011 0.31435 0.011c0.39033 0 0.76988-0.011 1.1549-0.011 3.9546 0.011 7.6719-0.18685 10.191-0.66448 3.4466-0.6536 6.2452-1.3941 7.6563-1.9842 1.8047-0.56219 3.5422-1.1499 4.5969-1.579l3.2318-1.3158-0.033-0.0971c0.48005-0.22422 0.95596-0.45851 1.4313-0.69672-3e-3 0.011-0.1601 0.44759-0.159 0.44679 0.037-0.0294 1.6956-0.99766 3.6843-2.1508 2.35-1.3624 4.5873-2.8504 6.7211-4.4397 0.17109-0.0294 0.80802-0.54391 1.6301-1.2591 3.715-2.942 7.0656-6.2222 10.038-9.7711l2.448-2.4328-0.39-0.14399c0.42254-0.55691 0.83932-1.1164 1.2438-1.6851 0.32864-0.46199 0.65833-0.92387 0.97505-1.3934 0.43488-0.63265 0.86167-1.2871 1.2761-1.952 3e-3 -8e-3 0.011-0.0146 0.0146-0.022 3e-3 -8e-3 8e-3 -0.0146 0.0146-0.022 0.1982-0.31874 0.39516-0.65854 0.59256-0.99018l2.3666-3.6029-0.35025-8e-3c0.17182-0.32864 0.34878-0.65493 0.515-0.98638 0.0754-0.14801 0.14692-0.27698 0.22349-0.42788 0.14361-0.28393 0.27514-0.5763 0.41462-0.86335 0.0667-0.14032 0.13482-0.27954 0.20077-0.4203 1.0057-2.1135 1.8909-4.3095 2.6676-6.5602 0.42938-0.79634 0.86277-2.4548 1.5866-5.2898 0.0293-0.11725 0.0524-0.23485 0.0814-0.35208 0.0443-0.17916 0.0989-0.35428 0.14215-0.53392 0.11871-0.49478 0.22348-0.99359 0.3312-1.4918 0.0183-0.0854 0.033-0.17219 0.0509-0.25755 0.0256-0.12384 0.0594-0.2473 0.0854-0.37113l0.13812 0.33888 0.69105-4.949c0.27331-1.9549 0.43825-3.9314 0.5339-5.9165 8e-3 -0.12383 0.0184-0.24693 0.0256-0.37105 3e-3 -0.089 8e-3 -0.17806 0.011-0.26709 0.0184-0.42939 0.022-0.85943 0.033-1.2893 8.5e-4 -0.0436 3e-3 -0.0872 3e-3 -0.13079 8.5e-4 -0.0479 7.7e-4 -0.096 2e-3 -0.14399 3e-3 -0.17036 0.011-0.34072 0.0146-0.51119 8.4e-4 -0.0953 8.4e-4 -0.19051 2e-3 -0.28577 8.4e-4 -0.0784 3e-3 -0.15643 3e-3 -0.23484 3.3e-4 -0.0912-2e-3 -0.18319-2e-3 -0.27441 1.5e-4 -0.0912 2e-3 -0.18318 2e-3 -0.27441-5.5e-4 -0.0784-3e-3 -0.15644-3e-3 -0.23485-8.4e-4 -0.0952-7e-4 -0.1905-2e-3 -0.28576-2e-3 -0.17073-0.011-0.34073-0.0146-0.5112-8.5e-4 -0.048-8.1e-4 -0.096-2e-3 -0.14397-8.4e-4 -0.0436-3e-3 -0.0872-3e-3 -0.1308-8e-3 -0.42989-0.0146-0.85994-0.033-1.2893-3e-3 -0.089-8e-3 -0.17768-0.011-0.26708-8e-3 -0.1242-0.0183-0.24693-0.0256-0.3711-0.0956-1.9851-0.26085-3.9616-0.5339-5.9164l-0.69105-4.949-0.13812 0.3389c-0.0256-0.12384-0.0589-0.2473-0.0854-0.37107-0.0184-0.0854-0.033-0.17218-0.0509-0.25755-0.10772-0.4983-0.21249-0.99711-0.3312-1.4919-0.0432-0.17952-0.0975-0.35501-0.14215-0.53391-0.0293-0.11723-0.0512-0.23484-0.0814-0.35208-0.72382-2.8349-1.1572-4.4934-1.5866-5.2898-0.7767-2.2507-1.6619-4.4467-2.6676-6.5602-0.0656-0.14068-0.13409-0.2799-0.20077-0.4203-0.13923-0.28723-0.27112-0.5794-0.41462-0.8633-0.0762-0.15095-0.14765-0.27991-0.22349-0.42789-0.16633-0.33156-0.34292-0.65782-0.515-0.98641l0.35025-8e-3 -2.3666-3.6029c-0.19747-0.33156-0.39421-0.67126-0.59256-0.99015l-0.0146-0.022c-3e-3 -8e-3 -0.011-0.0146-0.0146-0.022-0.4144-0.66481-0.84119-1.3193-1.2761-1.952-0.3169-0.46942-0.64624-0.93142-0.97505-1.3934-0.40406-0.56791-0.82177-1.1287-1.2438-1.685l0.39-0.14398-2.448-2.4328c-2.9725-3.5489-6.3231-6.8291-10.038-9.7711-0.82206-0.71519-1.4592-1.2297-1.6301-1.259-2.1338-1.5893-4.3712-3.0773-6.7211-4.4397-1.9887-1.1531-3.6471-2.1214-3.6843-2.1508-8.5e-4 -8.1e-4 0.15607 0.43671 0.159 0.44682-0.47539-0.23814-0.9512-0.47262-1.4313-0.69669l0.033-0.0967-3.2318-1.3158c-1.0547-0.42905-2.7922-1.0167-4.5969-1.579-1.4112-0.59-4.2097-1.3305-7.6563-1.9842-2.5195-0.47763-6.2369-0.67203-10.191-0.66452-0.38502-3e-3 -0.76457-0.0146-1.1549-0.011-0.10258 5.5e-4 -0.2114 8e-3 -0.31435 8e-3 -0.10295-8.5e-4 -0.21176-8e-3 -0.31434-8e-3z" fill="#fff"/>
  <path d="m105.52 123.8c-10.761-0.0517-19.445 2.027-29.104 6.8739-10.359 5.1981-19.326 13.281-25.992 23.432l-3.5864 5.4606 17.281 0.30151c16.221 0.28285 17.334 0.37264 18.136 1.4706 1.2041 1.6481 1.0614 3.7463-0.35062 5.1584-0.98996 0.98996-2.0087 1.2051-5.7038 1.2051-5.3182 0-6.129 0.77092-5.4651 5.1979 0.45874 3.0585 19.487 57.808 19.93 57.345 0.08976-0.0938 4.1351-10.332 8.9902-22.753l8.8276-22.583-1.2986-3.6315c-1.6393-4.585-3.7416-8.256-6.4369-11.24-1.6591-1.8363-2.5459-2.3356-4.1492-2.3356-3.7458 0-5.8432-4.0905-3.4523-6.7325 0.93091-1.0286 2.4369-1.1016 22.599-1.1016 20.798 0 21.646 0.0443 22.806 1.2051 1.6122 1.6122 1.5195 3.3566-0.27367 5.15-1.3138 1.3139-1.9964 1.479-6.1102 1.479-8.8526 0-8.8154 0.36234 3.6265 35.254 8.5439 23.961 9.9656 27.517 10.481 26.215 0.32827-0.82862 4.1432-10.786 8.4777-22.127 7.7579-20.299 7.8717-20.668 7.3075-23.643-0.72061-3.7995-2.3689-7.0827-6.0936-12.14-3.8933-5.2859-5.3331-8.6128-5.3492-12.359-0.0183-4.0905 1.7853-6.7971 5.4272-8.1475l2.6952-0.99916-6.3278-6.2838c-12.972-12.882-26.196-18.84-43.482-19.588-1.1611-0.0502-2.2962-0.0781-3.4094-0.0836zm-61.655 44.443c-0.03298-2e-3 -0.06157-2e-3 -0.09196 5.5e-4 -0.70519 0.0743-1.1418 1.7568-2.1937 5.8764-7.6279 29.876 5.4228 60.832 32.187 76.349 1.9887 1.153 3.6461 2.1206 3.6832 2.1502 0.03704 0.0293-2.5684-7.3357-5.7901-16.368-3.2217-9.032-9.0383-25.371-12.926-36.309-7.6704-21.582-9.5944-26.052-12.853-29.859-0.95384-1.1144-1.5485-1.8007-2.0167-1.8402zm127.05 8.5432-2.9802 7.3598c-1.639 4.0477-7.5953 19.427-13.236 34.177-5.6409 14.75-10.378 27.021-10.527 27.269-0.14874 0.2484 0.0396 0.45214 0.41858 0.45214 0.37904 0 3.6002-2.9157 7.1578-6.4788 6.7653-6.7756 9.6594-10.693 13.47-18.23 5.9398-11.748 8.2659-26.165 6.3884-39.601zm-60.268 14.037c-0.2015-0.2015-25.142 63.666-25.135 64.365 0.0076 0.58414 3.6931 1.7157 8.6584 2.6574 6.5476 1.2417 21.031 0.7501 27.361-0.92842 2.7389-0.72624 6.4346-1.912 8.212-2.6352l3.2319-1.3148-11.069-30.976c-6.0878-17.037-11.155-31.062-11.26-31.168z" fill="#9ca3ab"/>
 </g>
</svg>
